<svg xmlns="http://www.w3.org/2000/svg" viewBox="0 0 28 28" fill="none">
	<path fill="#07C160" d="M10.7 4C5.5 4 1.3 7.5 1.3 11.9c0 2.5 1.4 4.8 3.6 6.2l-.9 2.8 3.3-1.7c.8.2 1.6.3 2.4.4a6.6 6.6 0 0 1-.2-1.7c0-3.9 3.7-7 8.2-7 .3 0 .5 0 .8.1C17.9 6.7 14.6 4 10.7 4ZM7.3 8.3a1.3 1.3 0 1 1 0 2.6 1.3 1.3 0 0 1 0-2.6Zm6.8 0a1.3 1.3 0 1 1 0 2.6 1.3 1.3 0 0 1 0-2.6Z"/>
	<path fill="#07C160" d="M26.7 17.7c0-3.4-3.4-6.2-7.4-6.2s-7.4 2.8-7.4 6.2 3.3 6.2 7.4 6.2c.9 0 1.8-.2 2.6-.4l2.7 1.4-.8-2.3c1.6-1.1 2.9-2.9 2.9-4.9Zm-9.7-1.4a1.1 1.1 0 1 1 0 2.1 1.1 1.1 0 0 1 0-2.1Zm4.7 0a1.1 1.1 0 1 1 0 2.1 1.1 1.1 0 0 1 0-2.1Z"/>
</svg>
